# xmcd
#
# Track frame offsets:
#	150
#	19107
#	35445
#	57177
#	75480
#	93777
#	106835
#	120930
#	133005
#	149840
#	164577
#	180322
#
# Disc length: 2578 seconds
#
# Revision: 1
# Processed by: cddbd v1.5.1PL0 Copyright (c) Steve Scherf et al.
# Submitted via: audiograbber 1.83.01
#
DISCID=930a100c
DTITLE=The Ozark Mountain Daredevils - The Best
DYEAR=1981
DGENRE=Pop
TTITLE0=Jackie Blue
TTITLE1=Following The Way I Feel
TTITLE2=Road To Glory
TTITLE3=You Know Like I Know
TTITLE4=Leatherwood
TTITLE5=Fly Away Home
TTITLE6=If You Wanna Get To Heaven
TTITLE7=Homemade Wine
TTITLE8=You Made It Right
TTITLE9=Country Girl
TTITLE10=Walkin' Down The Road
TTITLE11=Keep On Churnin'
EXTD=
EXTT0=
EXTT1=
EXTT2=
EXTT3=
EXTT4=
EXTT5=
EXTT6=
EXTT7=
EXTT8=
EXTT9=
EXTT10=
EXTT11=
PLAYORDER=
